# xmcd CD database file
#
# Track frame offsets:
#	150
#	18308
#	47223
#	69932
#	88952
#	109051
#	132622
#	148734
#	166544
#	186664
#	208223
#	229145
#	247099
#	270510
#
# Disc length: 3977 seconds
#
# Revision: 0
# Processed by: cddbd v1.5.2PL0 Copyright (c) Steve Scherf et al.
# Submitted via: CDex 1.70beta2
#
DISCID=d40f870e
DTITLE=Susanna - Flower of Evil
DYEAR=2008
DGENRE=Jazz
TTITLE0=Jailbreak
TTITLE1=Can't Shake Loose
TTITLE2=Who Knows Where the Time Goes
TTITLE3=Vicious
TTITLE4=Without You
TTITLE5=Dance On
TTITLE6=Joy and Jubilee
TTITLE7=Janitor of Lunacy
TTITLE8=Changes
TTITLE9=Wild Is the Will
TTITLE10=Don't Come Around Here No More
TTITLE11=Goodbye
TTITLE12=Forever
TTITLE13=Lay All Your Love on Me
EXTD=YEAR: 2008
EXTT0=
EXTT1=
EXTT2=
EXTT3=
EXTT4=
EXTT5=
EXTT6=
EXTT7=
EXTT8=
EXTT9=
EXTT10=
EXTT11=
EXTT12=
EXTT13=
PLAYORDER=
